<svg width="32" height="32" viewBox="0 0 32 32" fill="none" xmlns="http://www.w3.org/2000/svg">
<g clip-path="url(#clip0_354_35)">
<path d="M4.04102 10.5554V29.9304C4.04102 30.996 4.91289 31.8679 5.97852 31.8679H23.416C24.4816 31.8679 25.3535 30.996 25.3535 29.9304V10.5554H4.04102ZM9.85352 27.9929H7.91602V14.4304H9.85352V27.9929ZM13.7285 27.9929H11.791V14.4304H13.7285V27.9929ZM17.6035 27.9929H15.666V14.4304H17.6035V27.9929ZM21.4785 27.9929H19.541V14.4304H21.4785V27.9929ZM25.8379 4.74292H19.541V2.32104C19.5395 1.93612 19.3859 1.5674 19.1137 1.29522C18.8415 1.02304 18.4728 0.86945 18.0879 0.86792L11.3066 0.86792C10.9217 0.86945 10.553 1.02304 10.2808 1.29522C10.0086 1.5674 9.85505 1.93612 9.85352 2.32104V4.74292H3.55664C3.17156 4.74394 2.80255 4.89737 2.53026 5.16966C2.25796 5.44195 2.10454 5.81097 2.10352 6.19604V8.61792H27.291V6.19604C27.29 5.81097 27.1366 5.44195 26.8643 5.16966C26.592 4.89737 26.223 4.74394 25.8379 4.74292ZM17.6035 4.74292H11.791V2.83061H17.6035V4.74292Z" fill="#FD5252"/>
</g>
<defs>
<clipPath id="clip0_354_35">
<rect width="31" height="31" fill="white" transform="translate(0.166016 0.86792)"/>
</clipPath>
</defs>
</svg>
