<svg width="20" height="12" viewBox="0 0 20 12" fill="none" xmlns="http://www.w3.org/2000/svg">
<path d="M3.53327 1.48328L9.99994 7.94995L16.4666 1.48328C16.6209 1.32898 16.8041 1.20658 17.0057 1.12307C17.2073 1.03956 17.4234 0.996582 17.6416 0.996582C17.8598 0.996582 18.0759 1.03956 18.2775 1.12307C18.4791 1.20658 18.6623 1.32898 18.8166 1.48328C18.9709 1.63759 19.0933 1.82077 19.1768 2.02238C19.2603 2.22398 19.3033 2.44007 19.3033 2.65828C19.3033 2.8765 19.2603 3.09258 19.1768 3.29419C19.0933 3.4958 18.9709 3.67898 18.8166 3.83328L11.1666 11.4833C11.0124 11.6378 10.8293 11.7604 10.6276 11.844C10.426 11.9276 10.2099 11.9707 9.9916 11.9707C9.77332 11.9707 9.55719 11.9276 9.35556 11.844C9.15394 11.7604 8.97079 11.6378 8.8166 11.4833L1.16661 3.83328C1.0121 3.67909 0.88952 3.49595 0.805885 3.29432C0.722249 3.0927 0.679199 2.87656 0.679199 2.65828C0.679199 2.44 0.722249 2.22387 0.805885 2.02224C0.88952 1.82062 1.0121 1.63747 1.16661 1.48328C1.81661 0.84995 2.88327 0.833283 3.53327 1.48328Z" fill="#808080"/>
</svg>
